<svg width="58" height="47" viewBox="0 0 58 47" fill="none" xmlns="http://www.w3.org/2000/svg">
<path d="M46.1586 14.6344H37.6207C32.5784 14.6344 21.2055 12.5324 24.5669 0.906097C22.468 1.59044 20.6672 2.77882 19.3982 4.317C18.1291 5.85518 17.4504 7.67215 17.4502 9.53212V12.9336C17.4502 13.5288 17.4747 14.111 17.5238 14.6803C28.2745 15.2731 38.9163 21.5819 39.8932 33.1416C40.4488 33.1729 41.005 33.1885 41.5617 33.1885H46.1586C49.1445 33.1885 52.008 32.2111 54.1193 30.4714C56.2306 28.7317 57.4167 26.3721 57.4167 23.9118C57.4167 21.4515 56.2306 19.0919 54.1193 17.3522C52.008 15.6125 49.1445 14.6351 46.1586 14.6351V14.6344Z" fill="#64A1F8"/>
<path d="M15.8553 14.6345H11.258C8.27222 14.6345 5.40869 15.6119 3.2974 17.3516C1.18611 19.0913 0 21.4508 0 23.9112C0 26.3715 1.18611 28.731 3.2974 30.4708C5.40869 32.2105 8.27222 33.1878 11.258 33.1878H19.7956C24.8374 33.1878 36.2103 35.2899 32.8495 46.9166C34.9482 46.2321 36.7489 45.0436 38.0179 43.5054C39.2868 41.9672 39.9655 40.1503 39.9659 38.2904V34.8884C39.9659 21.5925 27.6767 14.6345 15.8553 14.6345Z" fill="#517EBE"/>
</svg>
